<svg width="620" height="170" viewBox="0 0 620 170" fill="none" xmlns="http://www.w3.org/2000/svg" role="img" aria-labelledby="title desc"><title id="title">AssetHub</title><desc id="desc">AssetHub logo for dark surfaces.</desc><defs><linearGradient id="a" x1="28" y1="20" x2="150" y2="145" gradientUnits="userSpaceOnUse"><stop stop-color="#06B6D4"/><stop offset=".48" stop-color="#2563EB"/><stop offset="1" stop-color="#7C3AED"/></linearGradient><linearGradient id="h" x1="350" y1="48" x2="590" y2="112" gradientUnits="userSpaceOnUse"><stop stop-color="#60A5FA"/><stop offset="1" stop-color="#22D3EE"/></linearGradient></defs><g transform="translate(8 10)"><path d="M70 132 105 42c5-13 23-13 28 0l34 90c5 13-14 23-22 11l-22-31-21 31c-8 12-27 2-22-11Z" fill="url(#a)"/><g transform="translate(79 78)"><path d="m0 15 30-17 30 17v35L30 67 0 50V15Z" fill="#0F172A" stroke="white" stroke-width="2"/><path d="m0 15 30 17 30-17L30-2 0 15Z" fill="#1D4ED8" stroke="white" stroke-width="2"/><path d="M30 32v35" stroke="white" stroke-width="2"/><path d="M13 23v16l12 7V30L13 23Z" fill="#60A5FA" stroke="white" stroke-width="1.5"/><path d="M39 29v14l10-6V23l-10 6Z" fill="#22D3EE" stroke="white" stroke-width="1.5"/></g></g><text x="185" y="91" font-family="Inter,Segoe UI,Arial,sans-serif" font-size="58" font-weight="800" letter-spacing="-2"><tspan fill="#FFFFFF">Asset</tspan><tspan fill="url(#h)">Hub</tspan></text><text x="188" y="121" font-family="Inter,Segoe UI,Arial,sans-serif" font-size="13" font-weight="600" letter-spacing="5" fill="#CBD5E1">TRACK • MANAGE • OPTIMIZE</text></svg>